<svg width="147" height="30" viewBox="0 0 147 30" fill="none" xmlns="http://www.w3.org/2000/svg">
<path d="M72.5253 27.3573H86.8295V29.4263H70.0584V0.459781H72.5253V27.3573Z" fill="white"/>
<path d="M94.5287 29.4263H92.0817V0.459781H94.5287V29.4263Z" fill="white"/>
<path d="M118.8 22.304C118.8 20.6992 118.236 19.4326 117.109 18.5042C115.982 17.5625 113.919 16.6739 110.922 15.8383C107.924 14.9895 105.736 14.0677 104.357 13.0729C102.394 11.6671 101.412 9.8235 101.412 7.54225C101.412 5.32732 102.321 3.53018 104.138 2.15082C105.968 0.7582 108.302 0.0618896 111.141 0.0618896C113.064 0.0618896 114.781 0.433255 116.293 1.17599C117.819 1.91872 118.999 2.95324 119.835 4.27954C120.67 5.60585 121.088 7.08468 121.088 8.71603H118.621C118.621 6.73984 117.945 5.1549 116.592 3.96123C115.239 2.75429 113.422 2.15082 111.141 2.15082C108.926 2.15082 107.162 2.64819 105.849 3.64291C104.536 4.62438 103.879 5.9109 103.879 7.50246C103.879 8.97466 104.469 10.175 105.65 11.1034C106.83 12.0318 108.72 12.8541 111.32 13.5703C113.919 14.2733 115.889 15.0094 117.228 15.7786C118.568 16.5346 119.576 17.4431 120.252 18.5042C120.929 19.5652 121.267 20.8186 121.267 22.2642C121.267 24.5455 120.352 26.3758 118.522 27.7551C116.705 29.1345 114.304 29.8242 111.32 29.8242C109.277 29.8242 107.401 29.4594 105.69 28.73C103.992 28.0005 102.699 26.9793 101.81 25.6662C100.935 24.3532 100.497 22.8478 100.497 21.1501H102.944C102.944 23.1927 103.707 24.8041 105.232 25.9845C106.757 27.1649 108.787 27.7551 111.32 27.7551C113.574 27.7551 115.385 27.2578 116.751 26.2631C118.117 25.2683 118.8 23.9486 118.8 22.304Z" fill="white"/>
<path d="M146.215 2.54871H136.287V29.4263H133.84V2.54871H123.933V0.459781H146.215V2.54871Z" fill="white"/>
<path d="M26.4082 29.049V0.754517H43.7622L41.8759 7.16794H33.9534V12.0723H43.0077V17.7312H33.9534V23.0129H43.7622V29.049H26.4082Z" fill="white"/>
<path d="M48.2893 0.754528V29.049H63.757L65.6433 22.6356H55.8345V0.754528H48.2893Z" fill="white"/>
<path d="M6.69538 14.9968C6.69538 19.869 10.485 23.8131 15.152 23.8131C17.9624 23.8131 20.4549 22.3824 21.9936 20.1783V27.5832C19.7618 29.1106 17.104 29.9936 14.2428 29.9936C6.37746 30 0 23.2846 0 14.9968C0 6.70891 6.37746 0 14.2491 0C17.1104 0 19.7682 0.889366 22 2.41031V9.81525C20.4613 7.61117 17.9688 6.18045 15.1584 6.18045C10.485 6.18045 6.69538 10.131 6.69538 14.9968Z" fill="white"/>
</svg>
